<svg xmlns="http://www.w3.org/2000/svg" viewBox="0 0 219.34 38.02"><defs><style>.cls-1{fill:#050b26;}.cls-2{fill:#ed1308;}</style></defs><title>logo_aqn</title><g id="Capa_2" data-name="Capa 2"><g id="Capa_1-2" data-name="Capa 1"><path class="cls-1" d="M17.77,22l-2-4.8h-9L4.8,22H0L9.17.45h4.35L22.69,22ZM11.28,6.11,8.44,13.05h5.69Z"/><path class="cls-1" d="M44.45,22.66l-2.36-2.11a11.66,11.66,0,0,1-6.36,1.83,11,11,0,0,1-11.34-11v-.06A11.07,11.07,0,0,1,35.79.24a11,11,0,0,1,11.35,11v.06a10.8,10.8,0,0,1-1.9,6.15l2.21,1.86ZM42.22,11.31a6.51,6.51,0,0,0-6.49-6.73,6.4,6.4,0,0,0-6.42,6.67v.06A6.5,6.5,0,0,0,35.79,18a7.06,7.06,0,0,0,2.82-.58l-3.49-3,3-3.36,3.52,3.18a7.24,7.24,0,0,0,.58-2.94Z"/><path class="cls-1" d="M61.39,22.35c-5.75,0-9.27-3.21-9.27-9.51V.61h4.71V12.72c0,3.48,1.74,5.29,4.62,5.29s4.62-1.75,4.62-5.14V.61h4.7V12.69c0,6.48-3.63,9.66-9.38,9.66"/><path class="cls-1" d="M91.06,22l-2-4.8h-9l-2,4.8h-4.8L82.47.45h4.34L96,22ZM84.58,6.11l-2.85,6.94h5.69Z"/><polygon class="cls-1" points="114.62 22.01 104.25 8.41 104.25 22.01 99.61 22.01 99.61 0.61 103.95 0.61 113.98 13.79 113.98 0.61 118.63 0.61 118.63 22.01 114.62 22.01"/><rect class="cls-1" x="125.31" y="0.61" width="4.71" height="21.41"/><path class="cls-1" d="M214.4,22l-2-4.8h-9.05l-2,4.8h-4.8L205.8.45h4.35L219.32,22Zm-6.49-15.9-2.84,6.94h5.69Z"/><path class="cls-2" d="M193.33,22.22c-5.19,0-7.38-5.12-9.32-9.64s-3.49-7.66-6.17-7.66c-2,0-3.16,2.23-4.86,5.91-1.8,3.92-4,8.78-9.32,8.78s-7.52-4.86-9.32-8.78c-1.69-3.68-2.86-5.91-4.85-5.91-2.79,0-4.29,3.05-6.27,7.72-1.9,4.49-4.05,9.58-9.23,9.58V17.3c1.79,0,3-2.6,4.71-6.58C140.72,6,143.24,0,149.49,0c5.28,0,7.52,4.87,9.32,8.78,1.69,3.68,2.86,5.92,4.85,5.92s3.16-2.24,4.86-5.92c1.8-3.91,4-8.78,9.32-8.78,6.12,0,8.66,5.9,10.69,10.65,1.72,4,3,6.65,4.8,6.65Z"/><path class="cls-1" d="M169.6,36.13c1.82,0,2.75-.85,2.75-2.08,0-1-.56-1.65-1.93-2.23l-.58-.25c-.75-.32-1.17-.64-1.17-1.2s.43-.94,1.37-.94a5.35,5.35,0,0,1,1.76.32,4.5,4.5,0,0,0,.21-1.08,6,6,0,0,0-2-.31c-1.74,0-2.59.78-2.59,2s.69,1.7,1.7,2.14l.54.24c1,.44,1.42.73,1.42,1.35s-.56,1-1.56,1a5,5,0,0,1-2-.42,3.46,3.46,0,0,0-.2,1.08,5.15,5.15,0,0,0,2.2.41"/><path class="cls-1" d="M176.52,30.29a2.67,2.67,0,0,0-3,3c0,1.81.94,2.84,2.36,2.84a1.63,1.63,0,0,0,1.51-.78l.07.65h1.08V30.59a6.1,6.1,0,0,0-2-.3m.85,4.45a1.89,1.89,0,0,1-1.15.38c-1.05,0-1.49-.77-1.49-1.87s.57-1.95,1.79-1.95a4.22,4.22,0,0,1,.85.07Z"/><path class="cls-1" d="M182.42,30.29a10.13,10.13,0,0,0-2.14.3V36h1.18V31.39a5.21,5.21,0,0,1,.93-.09c1.18,0,1.46.41,1.46,1.26V36H185V32.35c0-1.3-.63-2.06-2.61-2.06"/><path class="cls-1" d="M187.83,34.11V31.48h1.76a9.66,9.66,0,0,0,.1-1h-1.86v-2a4,4,0,0,0-1.18.17v5.63a1.65,1.65,0,0,0,1.87,1.84,2.84,2.84,0,0,0,1-.17,8.59,8.59,0,0,0,.14-1,2.85,2.85,0,0,1-.92.16c-.57,0-.91-.27-.91-1"/><path class="cls-1" d="M193.48,30.29a2.68,2.68,0,0,0-3,3c0,1.81,1,2.84,2.36,2.84a1.64,1.64,0,0,0,1.52-.78l.06.65h1.09V30.59a6.18,6.18,0,0,0-2-.3m.85,4.45a1.91,1.91,0,0,1-1.15.38c-1.06,0-1.5-.77-1.5-1.87s.57-1.95,1.8-1.95a4.29,4.29,0,0,1,.85.07Z"/><path class="cls-1" d="M199.38,30.29a10.22,10.22,0,0,0-2.15.3V36h1.18V31.39a5.21,5.21,0,0,1,.93-.09c1.18,0,1.46.41,1.46,1.26V36H202V32.35c0-1.3-.63-2.06-2.6-2.06"/><path class="cls-1" d="M207.24,28.61v1.77a4.17,4.17,0,0,0-.88-.09,2.68,2.68,0,0,0-3,3c0,1.81.95,2.84,2.36,2.84a1.62,1.62,0,0,0,1.54-.82l.06.69h1.09V28.45a3.52,3.52,0,0,0-1.17.16m0,6.1a1.9,1.9,0,0,1-1.18.41c-1.05,0-1.49-.77-1.49-1.87s.55-1.95,1.72-1.95a4.4,4.4,0,0,1,1,.11Z"/><path class="cls-1" d="M214.84,32.75a2.24,2.24,0,0,0-2.41-2.46c-1.88,0-2.62,1.27-2.62,2.87a2.63,2.63,0,0,0,2.93,2.93,4,4,0,0,0,1.74-.35c.07-.35.14-.76.18-1.07a4.59,4.59,0,0,1-1.89.41A1.54,1.54,0,0,1,211,33.66h3.77a6.73,6.73,0,0,0,.06-.91M211,32.68c.1-.92.53-1.4,1.37-1.4a1.23,1.23,0,0,1,1.29,1.4Z"/><path class="cls-1" d="M218.31,30.29a7.2,7.2,0,0,0-2,.3V36h1.18V31.37a5.1,5.1,0,0,1,.87-.07,8.2,8.2,0,0,1,.89,0,4.61,4.61,0,0,0,.1-1,7.7,7.7,0,0,0-1-.05"/><path class="cls-1" d="M138.89,31.91v3a5.66,5.66,0,0,1-1,.11c-1.63,0-2.66-1-2.66-2.87A2.48,2.48,0,0,1,138,29.43a5.51,5.51,0,0,1,1.86.31,4.49,4.49,0,0,0,.22-1.09,6.56,6.56,0,0,0-2.08-.29c-2.52,0-4,1.4-4,3.88a3.57,3.57,0,0,0,3.82,3.89,6.38,6.38,0,0,0,2.27-.4V31.91Z"/><path class="cls-1" d="M143.94,30.29a7.21,7.21,0,0,0-2,.3V36h1.18V31.37a5.1,5.1,0,0,1,.87-.07,8.2,8.2,0,0,1,.89,0,4,4,0,0,0,.11-1,7.88,7.88,0,0,0-1-.05"/><path class="cls-1" d="M149.73,30.42v4.23a1.77,1.77,0,0,1-1.18.43c-.9,0-1.21-.41-1.21-1.32V30.42h-1.19V34a1.8,1.8,0,0,0,2,2.06,1.94,1.94,0,0,0,1.61-.83l.06.7h1.1V30.42Z"/><path class="cls-1" d="M154.69,30.29a7.57,7.57,0,0,0-2.06.3V38h1.18V36a3.33,3.33,0,0,0,.95.12,2.65,2.65,0,0,0,2.89-3c0-1.81-.93-2.84-3-2.84m0,4.79a3.26,3.26,0,0,1-.87-.12V31.38a4.09,4.09,0,0,1,.8-.08,1.66,1.66,0,0,1,1.85,1.89c0,1.23-.6,1.89-1.78,1.89"/><path class="cls-1" d="M161.6,30.29a2.68,2.68,0,0,0-2.83,3,2.6,2.6,0,0,0,2.72,2.82,2.68,2.68,0,0,0,2.84-3,2.59,2.59,0,0,0-2.73-2.82m0,4.79c-1,0-1.6-.59-1.6-1.91,0-1.14.5-1.87,1.6-1.87s1.56.6,1.56,1.91c0,1.15-.51,1.87-1.56,1.87"/></g></g></svg>